<?xml version="1.0" standalone="no"?>
<!DOCTYPE svg PUBLIC "-//W3C//DTD SVG 20010904//EN"
 "http://www.w3.org/TR/2001/REC-SVG-20010904/DTD/svg10.dtd">
<svg version="1.0" xmlns="http://www.w3.org/2000/svg"
 width="700.000000pt" height="700.000000pt" viewBox="0 0 700.000000 700.000000"
 preserveAspectRatio="xMidYMid meet">
<metadata>
Created by potrace 1.14, written by Peter Selinger 2001-2017
</metadata>
<g transform="translate(0.000000,700.000000) scale(0.100000,-0.100000)"
fill="#000000" stroke="none">
<path d="M799 6114 c-63 -19 -122 -59 -155 -106 -65 -90 -61 66 -59 -2263 1
-2248 -1 -2136 47 -2280 100 -298 375 -528 690 -578 66 -10 505 -12 2193 -11
1161 0 2133 4 2160 9 264 40 497 204 631 442 39 69 87 202 99 273 4 25 9 462
10 973 l2 927 -291 -2 -291 -3 -1 -890 c-1 -489 -4 -902 -7 -917 -9 -43 -58
-127 -90 -154 -117 -98 -286 -96 -393 3 -22 21 -51 61 -64 88 l-25 50 -5 2120
c-5 2058 -6 2121 -24 2155 -45 83 -106 139 -177 162 -49 16 -4196 18 -4250 2z
m3276 -1164 c6 -5 10 -114 9 -292 l0 -283 -1167 0 -1167 0 0 291 0 292 1158 0
c636 0 1162 -4 1167 -8z m10 -1443 c0 -154 -3 -283 -6 -288 -4 -6 -1895 -14
-2311 -9 -17 0 -18 21 -18 290 l0 290 728 2 c400 2 925 1 1167 -2 l439 -5 1
-278z m-5 -886 c4 -1 5 -525 1 -567 -1 -8 -123 -11 -436 -11 l-435 0 0 291 0
291 433 -1 c237 -1 434 -2 437 -3z"/>
</g>
</svg>
